HIERARCHY
ROOT hip
{
	OFFSET 0.000000 0.000000 0.000000 
	CHANNELS 6 Xposition Yposition Zposition Xrotation Zrotation Yrotation
	JOINT abdomen
	{
		OFFSET 0.000000 3.402643 0.000000 
		CHANNELS 3 Xrotation Zrotation Yrotation
		JOINT chest
		{
			OFFSET 0.000000 8.438565 -0.680529 
			CHANNELS 3 Xrotation Zrotation Yrotation
			JOINT neck
			{
				OFFSET 0.000000 10.207942 -0.272212 
				CHANNELS 3 Xrotation Zrotation Yrotation
				JOINT head
				{
					OFFSET 0.000000 3.130431 0.000000 
					CHANNELS 3 Xrotation Zrotation Yrotation
					End Site
					{
						OFFSET 0.000000 3.130435 0.000000 
					}
				}
			}
			JOINT lCollar
			{
				OFFSET 3.470700 6.669187 -0.816635 
				CHANNELS 3 Yrotation Zrotation Xrotation
				JOINT lShldr
				{
					OFFSET 3.198488 0.000000 0.000000 
					CHANNELS 3 Zrotation Yrotation Xrotation
					JOINT lForeArm
					{
						OFFSET 10.139888 0.000000 0.000000 
						CHANNELS 3 Yrotation Zrotation Xrotation
						JOINT lHand
						{
							OFFSET 8.370511 0.000000 0.000000 
							CHANNELS 3 Zrotation Yrotation Xrotation
							End Site
							{
								OFFSET 4.083176 0.000000 0.000000 
							}
						}
					}
				}
			}
			JOINT rCollar
			{
				OFFSET -3.470700 6.669187 -0.816635 
				CHANNELS 3 Yrotation Zrotation Xrotation
				JOINT rShldr
				{
					OFFSET -3.198488 0.000000 0.000000 
					CHANNELS 3 Zrotation Yrotation Xrotation
					JOINT rForeArm
					{
						OFFSET -10.139888 0.000000 0.000000 
						CHANNELS 3 Yrotation Zrotation Xrotation
						JOINT rHand
						{
							OFFSET -8.370511 0.000000 0.000000 
							CHANNELS 3 Zrotation Yrotation Xrotation
							End Site
							{
								OFFSET -4.083176 0.000000 0.000000 
							}
						}
					}
				}
			}
		}
	}
	JOINT lThigh
	{
		OFFSET 5.308129 -1.633274 1.361059 
		CHANNELS 3 Xrotation Zrotation Yrotation
		JOINT lShin
		{
			OFFSET -2.041588 -20.007561 0.000000 
			CHANNELS 3 Xrotation Zrotation Yrotation
			JOINT lFoot
			{
				OFFSET 0.000000 -19.190928 -1.224953 
				CHANNELS 3 Xrotation Yrotation Zrotation
				End Site
				{
					OFFSET 0.000000 -2.449906 4.627600 
				}
			}
		}
	}
	JOINT rThigh
	{
		OFFSET -5.308129 -1.633274 1.361059 
		CHANNELS 3 Xrotation Zrotation Yrotation
		JOINT rShin
		{
			OFFSET 2.041588 -20.007561 0.000000 
			CHANNELS 3 Xrotation Zrotation Yrotation
			JOINT rFoot
			{
				OFFSET 0.000000 -19.190928 -1.224953 
				CHANNELS 3 Xrotation Yrotation Zrotation
				End Site
				{
					OFFSET 0.000000 -2.449906 4.627600 
				}
			}
		}
	}
}
MOTION
Frames: 13
Frame Time: 0.016667
-0.445244 48.217430 0.711634 2.380670 -3.699828 1.546054 26.462698 -0.419916 0.292961 -26.308876 4.247948 0.391722 -6.638898 1.064001 1.670359 16.917383 -2.723298 1.779048 -0.077890 1.376967 -0.009997 -71.799438 14.874108 37.865364 -32.360348 -1.940812 -23.949047 -11.724139 13.836056 -2.849603 11.181642 -1.259766 0.000215 84.571358 -21.820566 -15.187417 23.944492 -0.963919 9.499547 21.850815 2.088504 0.826904 -15.673308 4.433780 2.111614 32.713398 -1.059852 -2.671499 -21.660410 -11.355362 -16.955017 -11.091035 -1.025272 -5.997058 26.832624 1.249903 2.282972 -21.909353 5.851953 14.783495 
-0.416471 48.218876 0.718785 2.461435 -3.602207 1.545442 26.549978 -0.449210 0.351552 -26.314411 3.974471 0.480072 -6.699329 1.024975 1.631122 16.924450 -2.889308 1.730256 -0.058342 1.474619 -0.010014 -72.003189 15.021114 37.321049 -31.481092 -1.837032 -22.919006 -11.807466 13.889511 -2.882256 11.123048 -1.171875 0.000200 84.920082 -21.871534 -16.322042 23.905125 -0.805613 7.756999 21.947369 2.005571 0.797624 -15.674864 4.313676 2.139343 32.547878 -1.056063 -2.652370 -21.718130 -11.332133 -16.971479 -11.213221 -1.150906 -5.990455 26.979166 1.249859 2.290457 -21.940737 5.799343 14.777243 
-0.393605 48.215572 0.731154 2.458906 -3.582599 1.594788 26.695780 -0.468737 0.419908 -26.282047 3.798655 0.548261 -6.732273 0.907844 1.611590 16.923248 -2.996743 1.691737 -0.048578 1.464852 -0.010012 -72.361259 14.958743 36.314899 -30.348669 -1.781800 -22.120775 -11.788296 14.101299 -2.920144 11.054503 -1.105388 -0.009583 85.229515 -21.748045 -18.018824 23.616652 -0.569756 4.898796 22.068012 1.478900 0.588995 -15.645635 4.245193 2.114149 32.459282 -1.056160 -2.667359 -21.730532 -11.326758 -16.982794 -11.231951 -1.209309 -6.028648 26.979216 1.240053 2.298026 -21.760941 5.797761 14.756616 
-0.370742 48.212280 0.743518 2.457297 -3.553246 1.633776 26.841623 -0.488264 0.478498 -26.249382 3.632596 0.626838 -6.765135 0.790710 1.592050 16.922190 -3.104179 1.652728 -0.029047 1.464849 -0.010012 -72.714233 14.891397 35.315887 -29.225590 -1.709672 -21.327160 -11.769255 14.313121 -2.957851 10.976390 -1.037016 -0.009585 85.527161 -21.622576 -19.706743 23.327578 -0.310100 2.044929 22.190500 0.944102 0.374642 -15.619318 4.168225 2.080113 32.362270 -1.046429 -2.650109 -21.757217 -11.332185 -16.966951 -11.278214 -1.279358 -6.068286 26.988226 1.258441 2.302543 -21.601318 5.818953 14.751285 
-0.349941 48.200607 0.737649 2.474317 -3.641101 1.633768 27.016657 -0.488257 0.566386 -26.175930 3.593471 0.714549 -6.767376 0.693079 1.631094 16.551418 -3.074880 1.662480 0.019764 1.367184 -0.009996 -73.269699 14.469035 33.827415 -27.756088 -1.652169 -20.557520 -11.549355 14.544667 -2.945818 10.732271 -0.900256 -0.009594 85.492043 -21.206982 -21.853416 22.845968 0.016661 -1.908035 21.855509 0.108765 0.043645 -15.688603 4.217376 2.059473 32.411671 -1.051517 -2.634535 -21.693943 -11.400396 -16.998627 -11.334320 -1.230205 -6.073043 26.969570 1.254283 2.281211 -21.452013 5.834303 14.710986 
-0.329140 48.188942 0.731780 2.491616 -3.719194 1.633758 27.191578 -0.498014 0.654272 -26.102600 3.554340 0.802873 -6.769568 0.605215 1.660270 16.181461 -3.035834 1.662480 0.068576 1.269520 -0.009980 -73.805550 14.041489 32.345413 -26.300095 -1.583171 -19.792595 -11.339271 14.775841 -2.937006 10.478388 -0.763495 -0.009602 85.438179 -20.788845 -23.981676 22.378689 0.376379 -5.865800 21.525255 -0.726768 -0.286742 -15.773094 4.284782 2.037593 32.469261 -1.061411 -2.659567 -21.632523 -11.438956 -17.001118 -11.398665 -1.180159 -6.097820 26.969400 1.249849 2.289956 -21.309658 5.857239 14.720974 
-0.305234 48.167114 0.703635 2.522147 -3.836462 1.565532 27.415493 -0.527305 0.693330 -26.041264 3.534767 0.851605 -6.745410 0.722316 1.758042 15.570596 -3.025902 1.769752 0.175988 1.210908 -0.009970 -74.446106 13.492311 30.381111 -24.730362 -1.513068 -18.897671 -11.103186 14.902718 -2.896505 10.253824 -0.490020 -0.009609 85.169014 -20.225733 -26.667458 22.146774 0.749595 -10.267631 20.695156 -1.872870 -0.707615 -15.948401 4.401490 2.093081 32.635654 -1.046341 -2.663881 -21.575825 -11.527247 -17.011303 -11.628385 -1.113233 -6.045507 27.194530 1.230276 2.306850 -21.031664 5.903719 14.706491 
-0.281327 48.145283 0.675486 2.563399 -3.953749 1.487575 27.639370 -0.556595 0.732387 -25.970043 3.524956 0.900340 -6.731076 0.829647 1.845934 14.950520 -3.015978 1.867788 0.283398 1.142530 -0.009958 -75.059517 12.924831 28.430861 -23.165237 -1.430868 -17.998381 -10.876479 15.019455 -2.858284 10.019495 -0.216543 -0.009617 84.878143 -19.672426 -29.342632 21.935762 1.137588 -14.676439 19.883162 -3.036792 -1.108509 -16.127466 4.510019 2.129770 32.801796 -1.026883 -2.676662 -21.519667 -11.609459 -17.028963 -11.859011 -1.044271 -5.973866 27.419706 1.244628 2.292378 -20.737732 5.952641 14.658600 
-0.253640 48.083443 0.606517 2.623815 -4.100554 1.272566 27.931070 -0.673776 0.712841 -25.771042 3.603033 0.939943 -6.989421 1.190672 2.012299 14.060851 -2.986292 2.092601 0.488451 0.996011 -0.009934 -75.619438 12.015521 26.199871 -21.652996 -1.398551 -17.510237 -10.527830 15.132250 -2.786882 9.658224 0.125315 -0.009649 84.219688 -18.626169 -32.587940 22.103060 1.569155 -19.820316 18.270166 -4.093340 -1.339821 -16.471455 4.676822 2.293113 33.329021 -1.012800 -2.709035 -21.794323 -11.615079 -17.102451 -12.478460 -0.976792 -5.818966 28.259542 1.223898 2.359818 -20.468605 6.108156 14.687840 
-0.225950 48.021595 0.537548 2.686061 -4.247339 1.047115 28.232496 -0.800723 0.693292 -25.571766 3.690869 0.978937 -7.245669 1.551613 2.178786 13.161648 -2.956569 2.317415 0.693506 0.859257 -0.009910 -76.138885 11.078353 23.984123 -20.138575 -1.348114 -17.027958 -10.168268 15.235563 -2.707473 9.296953 0.457407 -0.009715 83.514259 -17.604834 -35.818222 22.311445 1.985878 -24.969593 16.652470 -5.163019 -1.552686 -16.813686 4.843122 2.474745 33.855865 -0.983607 -2.756459 -22.063791 -11.605907 -17.178282 -13.097054 -0.887573 -5.685165 29.100349 1.152194 2.434359 -20.175163 6.243549 14.701735 
-0.195271 47.907173 0.424275 2.759336 -4.384444 0.695063 28.633142 -1.064411 0.507725 -25.209932 3.915502 0.930237 -7.846690 2.165984 2.453110 12.001177 -2.897132 2.718282 1.035264 0.634589 -0.009872 -76.317970 9.927960 22.663670 -19.166698 -1.405740 -17.847088 -9.710123 15.188490 -2.575659 9.013803 0.779720 -0.009777 82.582458 -16.075874 -39.747501 23.365871 2.432439 -30.269547 14.482757 -5.523035 -1.424986 -17.395418 5.056233 2.783894 34.774559 -0.939111 -2.789664 -22.457764 -11.695373 -17.302908 -14.296482 -0.869114 -5.419363 31.055162 1.064283 2.540500 -19.929947 6.538636 14.769925 
-0.164591 47.792744 0.311002 2.835129 -4.511642 0.332539 29.035496 -1.328104 0.322179 -24.848637 4.130372 0.881547 -8.451115 2.789809 2.728032 10.841048 -2.837568 3.128416 1.377025 0.419687 -0.009834 -76.469116 8.769246 21.354187 -18.197197 -1.480259 -18.669407 -9.251761 15.130677 -2.443215 8.720891 1.111801 -0.009840 81.560631 -14.603923 -43.667175 24.466396 2.787632 -35.578262 12.303006 -5.876392 -1.289235 -17.997026 5.283082 3.051907 35.692677 -0.915869 -2.828630 -22.818274 -11.761000 -17.419172 -15.485105 -0.849271 -5.153667 33.038834 0.976395 2.635886 -19.689535 6.841666 14.864978 
-0.143045 47.606659 0.161931 2.831894 -4.697256 -0.117594 29.638393 -1.630859 0.009762 -24.387087 4.335572 0.744493 -9.410136 3.774049 3.024527 9.426119 -2.845673 3.685822 1.640667 0.243861 -0.009803 -75.996758 7.770611 21.842113 -18.279911 -1.708306 -21.497715 -8.950435 14.949636 -2.334844 8.584210 1.336433 -0.009881 80.553284 -12.725033 -47.512928 26.911194 3.240187 -40.698586 10.344503 -4.961957 -0.934788 -18.765282 5.603968 3.417873 37.068913 -0.847710 -2.915221 -23.273684 -11.834785 -17.570827 -17.290827 -0.888596 -4.825438 36.222000 0.820318 2.816309 -18.972775 7.532808 14.990774 
